<?xml version="1.0" encoding="UTF-8"?>
<svg xmlns="http://www.w3.org/2000/svg" width="16" height="16" fill="currentColor" viewBox="0 0 16 16">
  <path d="M10 1.5A1.5 1.5 0 0 1 11.5 3v9A1.5 1.5 0 0 1 10 13.5H5A1.5 1.5 0 0 1 3.5 12V3A1.5 1.5 0 0 1 5 1.5h5zm0-1H5A2.5 2.5 0 0 0 2.5 3v9A2.5 2.5 0 0 0 5 14.5h5a2.5 2.5 0 0 0 2.5-2.5V3A2.5 2.5 0 0 0 10 .5z"/>
  <path d="M2 4.5H1A1.5 1.5 0 0 0-.5 6v7A2.5 2.5 0 0 0 3 15.5h6a1.5 1.5 0 0 0 1.5-1.5v-1H9v1a.5.5 0 0 1-.5.5H3A1.5 1.5 0 0 1 1.5 13V6a.5.5 0 0 1 .5-.5h1v-1z"/>
</svg>
