<svg width="30" height="30" viewBox="0 0 30 30" fill="none" xmlns="http://www.w3.org/2000/svg">
<path d="M29.6861 5.84638C29.3678 5.69168 29.2308 5.98634 29.0446 6.13612C28.9817 6.18522 28.9274 6.24906 28.8744 6.30553C28.4093 6.80154 27.8665 7.12565 27.1584 7.08636C26.121 7.02989 25.2365 7.354 24.4545 8.14468C24.2879 7.16984 23.7352 6.58791 22.8952 6.21469C22.4548 6.02071 22.0094 5.82673 21.7024 5.4044C21.4865 5.10485 21.4285 4.7709 21.3199 4.44187C21.252 4.24299 21.1829 4.03919 20.9536 4.00482C20.7043 3.96553 20.6069 4.17424 20.5094 4.34857C20.1172 5.06064 19.9666 5.84638 19.9803 6.64193C20.0148 8.42943 20.7734 9.85355 22.2784 10.8677C22.4499 10.9831 22.4943 11.1009 22.4399 11.2704C22.3376 11.619 22.2155 11.9579 22.107 12.3065C22.0391 12.5301 21.9367 12.5791 21.6974 12.4809C20.8709 12.1372 20.1566 11.6289 19.5263 11.0125C18.4556 9.98128 17.4872 8.84203 16.2795 7.95069C15.9958 7.74195 15.7134 7.54798 15.4197 7.36382C14.1873 6.17049 15.5813 5.19079 15.9032 5.07538C16.2412 4.95507 16.0204 4.53763 14.9299 4.54255C13.8407 4.54746 12.8428 4.91086 11.5721 5.39459C11.3859 5.46824 11.191 5.52226 10.9899 5.564C9.8365 5.34793 8.63875 5.29881 7.38663 5.43878C5.03048 5.70151 3.14805 6.81136 1.76396 8.70688C0.102328 10.9831 -0.288716 13.5711 0.189918 16.272C0.693221 19.1154 2.15008 21.4726 4.39026 23.3142C6.71186 25.2221 9.3863 26.1576 12.4369 25.9783C14.2897 25.8727 16.3535 25.6248 18.6801 23.6628C19.2672 23.9526 19.8827 24.068 20.9054 24.1564C21.6925 24.2301 22.4499 24.1172 23.0371 23.9967C23.956 23.8029 23.892 22.9557 23.5601 22.7985C20.866 21.5488 21.4568 22.0571 20.9189 21.647C22.2882 20.0314 24.352 18.3543 25.1588 12.9229C25.2217 12.4907 25.1674 12.2207 25.1588 11.8696C25.1539 11.6583 25.202 11.5749 25.4462 11.5504C26.121 11.4742 26.7761 11.29 27.378 10.9586C29.1236 10.0083 29.8267 8.44916 29.9932 6.57809C30.0179 6.29326 29.9882 5.99616 29.6861 5.84638ZM14.4761 22.6831C11.8645 20.6378 10.5988 19.965 10.0759 19.9945C9.58728 20.0214 9.67494 20.5789 9.78219 20.9423C9.89448 21.3007 10.0413 21.5488 10.2473 21.8631C10.3891 22.0718 10.4867 22.3835 10.1054 22.6144C9.26415 23.135 7.80239 22.4401 7.7333 22.4057C6.03215 21.4089 4.60983 20.0902 3.60694 18.2879C2.6398 16.552 2.07729 14.6908 1.98478 12.7043C1.96011 12.2231 2.10196 12.0536 2.5806 11.9677C3.21095 11.8523 3.86229 11.8278 4.49265 11.9186C7.15718 12.3065 9.42572 13.495 11.3267 15.3734C12.4123 16.4464 13.2338 17.7257 14.0801 18.9755C14.9793 20.3039 15.9477 21.5684 17.18 22.6046C17.6142 22.968 17.9621 23.2455 18.2939 23.4492C17.2923 23.5598 15.6195 23.5843 14.4761 22.6831ZM15.7269 14.6614C15.7269 14.4476 15.8983 14.2783 16.1142 14.2783C16.1623 14.2783 16.2068 14.2881 16.2462 14.3028C16.2992 14.3224 16.3486 14.352 16.3869 14.3961C16.4559 14.4625 16.4954 14.5607 16.4954 14.6614C16.4954 14.875 16.324 15.0444 16.1092 15.0444C15.8934 15.0444 15.7269 14.875 15.7269 14.6614ZM19.6138 16.6502C19.3647 16.7509 19.1155 16.8393 18.8762 16.8491C18.5049 16.8663 18.099 16.7165 17.8782 16.5324C17.5365 16.2475 17.2923 16.0879 17.1886 15.587C17.1454 15.3734 17.1702 15.0444 17.2083 14.8553C17.2973 14.4476 17.1985 14.1874 16.9111 13.9493C16.6755 13.7553 16.3782 13.7038 16.0501 13.7038C15.928 13.7038 15.8157 13.6497 15.7318 13.6055C15.5949 13.5367 15.4826 13.3673 15.5899 13.1587C15.6244 13.0923 15.791 12.9278 15.8304 12.8983C16.2746 12.6455 16.7877 12.729 17.2626 12.918C17.703 13.0972 18.0348 13.4262 18.5135 13.8903C19.0032 14.4527 19.0909 14.6098 19.3696 15.0296C19.5892 15.3611 19.7903 15.6999 19.9272 16.0879C20.0098 16.3285 19.9026 16.5274 19.6138 16.6502Z" fill="#4D6BFE"/>
</svg>
